<svg width="25" height="19" viewBox="0 0 25 19" fill="none" xmlns="http://www.w3.org/2000/svg">
<path d="M23.3926 0V1.3877C21.429 2.10514 19.8903 3.23796 18.7764 4.78613C17.6624 6.31543 17.1055 7.91081 17.1055 9.57227C17.1055 9.93099 17.1621 10.1953 17.2754 10.3652C17.3509 10.4785 17.4359 10.5352 17.5303 10.5352C17.6247 10.5352 17.7663 10.4691 17.9551 10.3369C18.5592 9.90267 19.3239 9.68555 20.249 9.68555C21.3252 9.68555 22.2786 10.1292 23.1094 11.0166C23.9401 11.8851 24.3555 12.9235 24.3555 14.1318C24.3555 15.3968 23.874 16.5107 22.9111 17.4736C21.9671 18.4365 20.8154 18.918 19.4561 18.918C17.8701 18.918 16.5013 18.2666 15.3496 16.9639C14.1979 15.6611 13.6221 13.9147 13.6221 11.7246C13.6221 9.17578 14.4056 6.89128 15.9727 4.87109C17.5397 2.85091 20.013 1.22721 23.3926 0ZM9.77051 0V1.3877C7.80697 2.10514 6.26823 3.23796 5.1543 4.78613C4.04036 6.31543 3.4834 7.91081 3.4834 9.57227C3.4834 9.93099 3.54004 10.1953 3.65332 10.3652C3.72884 10.4785 3.8138 10.5352 3.9082 10.5352C4.0026 10.5352 4.14421 10.4691 4.33301 10.3369C4.93717 9.90267 5.70182 9.68555 6.62695 9.68555C7.70312 9.68555 8.65658 10.1292 9.4873 11.0166C10.318 11.8851 10.7334 12.9235 10.7334 14.1318C10.7334 15.3968 10.252 16.5107 9.28906 17.4736C8.34505 18.4365 7.19336 18.918 5.83398 18.918C4.24805 18.918 2.87923 18.2666 1.72754 16.9639C0.575846 15.6611 0 13.9147 0 11.7246C0 9.17578 0.783529 6.89128 2.35059 4.87109C3.91764 2.85091 6.39095 1.22721 9.77051 0Z" fill="#F8C5D7"/>
</svg>
