<svg width="25" height="30" viewBox="0 0 25 30" fill="none" xmlns="http://www.w3.org/2000/svg">
<path fill-rule="evenodd" clip-rule="evenodd" d="M20.1904 11.3102H18.6105V10.3886C18.0115 11.0803 17.5038 11.4296 16.9503 11.4296C16.4647 11.4296 16.1275 11.1988 15.9586 10.7818C15.856 10.5283 15.7832 10.1323 15.7832 9.55082V2.84851H17.3632V9.13193V9.71838C17.4 9.95354 17.4991 10.0394 17.7 10.0394C18.0024 10.0394 18.276 9.77468 18.6105 9.29948V2.84851H20.1904V11.3102Z" fill="#E43071"/>
<path fill-rule="evenodd" clip-rule="evenodd" d="M13.0391 8.7967C13.1222 9.63449 12.8643 10.0502 12.3737 10.0502C11.8832 10.0502 11.6255 9.63449 11.7086 8.7967V5.44555C11.6255 4.60776 11.8832 4.21509 12.3739 4.21509C12.8645 4.21509 13.1231 4.60776 13.0399 5.44555L13.0391 8.7967ZM14.619 5.61311C14.619 4.7088 14.4388 4.02985 14.1201 3.60241C13.6992 3.02367 13.0391 2.78674 12.3739 2.78674C11.6209 2.78674 11.0479 3.02367 10.6276 3.60241C10.3039 4.02985 10.1302 4.71617 10.1302 5.62048L10.1287 8.62915C10.1287 9.52826 10.2831 10.1496 10.6069 10.5729C11.0272 11.1499 11.7086 11.4555 12.3739 11.4555C13.0391 11.4555 13.7325 11.1499 14.1534 10.5729C14.472 10.1496 14.619 9.52826 14.619 8.62915V5.61311Z" fill="#E43071"/>
<mask id="mask0_2_292" style="mask-type:luminance" maskUnits="userSpaceOnUse" x="4" y="0" width="7" height="12">
<path fill-rule="evenodd" clip-rule="evenodd" d="M10.4613 0H4.64044L4.64044 11.3101H10.4613V0Z" fill="white"/>
</mask>
<g mask="url(#mask0_2_292)">
<path fill-rule="evenodd" clip-rule="evenodd" d="M8.38243 6.70231V11.3101H6.71932V6.70231C6.71932 6.70231 4.99593 1.05302 4.64044 0H6.3867L7.55378 4.41305L8.71505 0H10.4613L8.38243 6.70231Z" fill="#E43071"/>
</g>
<path fill-rule="evenodd" clip-rule="evenodd" d="M14.9686 19.4585C14.7208 19.4585 14.4368 19.5903 14.1851 19.8406L14.1834 24.9215C14.4351 25.1751 14.7208 25.3036 14.9686 25.3036C15.4027 25.3036 15.5987 24.9825 15.5987 24.1448V20.5423C15.5987 19.7045 15.4027 19.4585 14.9686 19.4585Z" fill="#E43071"/>
<path fill-rule="evenodd" clip-rule="evenodd" d="M21.1701 20.4655C21.1701 19.6912 20.9715 19.4585 20.4724 19.4585C19.9695 19.4585 19.7565 19.672 19.7565 20.455V21.3816L21.1701 21.3801V20.4655Z" fill="#E43071"/>
<mask id="mask1_2_292" style="mask-type:luminance" maskUnits="userSpaceOnUse" x="0" y="12" width="25" height="18">
<path fill-rule="evenodd" clip-rule="evenodd" d="M0 29.9155H24.8309V12.3993H0V29.9155Z" fill="white"/>
</mask>
<g mask="url(#mask1_2_292)">
<path fill-rule="evenodd" clip-rule="evenodd" d="M20.4864 25.3036C20.857 25.3036 21.073 25.1005 21.1589 24.695C21.1729 24.6124 21.1702 24.2506 21.1702 23.6421H22.7501V23.8795C22.7501 24.3683 22.7101 24.7142 22.6966 24.866C22.6458 25.2023 22.5276 25.5065 22.3445 25.7748C21.9281 26.3827 21.3103 26.6823 20.5237 26.6823C19.7362 26.6823 19.1368 26.3968 18.7014 25.8248C18.3816 25.4059 18.1766 24.7831 18.1766 23.8934V20.9612C18.1766 20.0664 18.3632 19.3747 18.683 18.9512C19.1184 18.3783 19.7178 18.0751 20.4864 18.0751C21.2416 18.0751 21.841 18.3783 22.263 18.9512C22.5777 19.3747 22.7527 20.0292 22.7527 20.924L22.753 22.6367H19.7565V24.1412C19.7513 24.9143 19.9696 25.3036 20.4864 25.3036ZM17.1787 24.061C17.1787 24.8353 17.1129 25.3817 17.0124 25.7366C16.8115 26.359 16.3734 26.6823 15.774 26.6823C15.2387 26.6823 14.6902 26.3579 14.1872 25.7309L14.1851 26.5743H12.6883V15.348H14.1851L14.1834 19.008C14.6697 18.4052 15.2201 18.0621 15.774 18.0621C16.3734 18.0621 16.7764 18.4109 16.9773 19.0379C17.0778 19.3747 17.1787 19.9169 17.1787 20.7098V24.061ZM11.441 26.5743H9.86104V25.6528C9.26208 26.3444 8.75433 26.6938 8.20085 26.6938C7.71522 26.6938 7.37794 26.463 7.20914 26.0459C7.10653 25.7924 7.03377 25.3965 7.03377 24.815V18.1965H8.61371V24.3961V24.9825C8.65055 25.2177 8.74967 25.3036 8.95058 25.3036C9.25293 25.3036 9.52659 25.0388 9.86104 24.5636V18.1965H11.441V26.5743ZM5.45382 26.5743H3.79071V16.9398H2.04445V15.3497L7.28323 15.348V16.9398H5.45382V26.5743ZM24.5829 16.1781C24.5829 16.1781 24.3403 14.4618 23.5958 13.706C22.6516 12.7141 21.5931 12.7092 21.1078 12.6512C17.6331 12.3993 12.421 12.3993 12.421 12.3993H12.4101C12.4101 12.3993 7.19775 12.3993 3.72311 12.6512C3.23765 12.7092 2.17958 12.7141 1.2351 13.706C0.490616 14.4618 0.248301 16.1781 0.248301 16.1781C0.248301 16.1781 0 18.1933 0 20.2087V22.0982C0 24.1135 0.248301 26.1288 0.248301 26.1288C0.248301 26.1288 0.490616 27.8449 1.2351 28.6007C2.17958 29.5928 3.42059 29.5612 3.97307 29.6652C5.95957 29.8565 12.4155 29.9155 12.4155 29.9155C12.4155 29.9155 17.6331 29.9076 21.1078 29.6558C21.5931 29.5977 22.6516 29.5928 23.5958 28.6007C24.3403 27.8449 24.5829 26.1288 24.5829 26.1288C24.5829 26.1288 24.8309 24.1135 24.8309 22.0982V20.2087C24.8309 18.1933 24.5829 16.1781 24.5829 16.1781Z" fill="#E43071"/>
</g>
</svg>
